<svg id="visual" viewBox="0 0 900 600" width="900" height="600" xmlns="http://www.w3.org/2000/svg" xmlns:xlink="http://www.w3.org/1999/xlink" version="1.1"><path d="M613 600L614 580C615 560 617 520 637.2 480C657.3 440 695.7 400 719.2 360C742.7 320 751.3 280 729.7 240C708 200 656 160 627.8 120C599.7 80 595.3 40 593.2 20L591 0L900 0L900 20C900 40 900 80 900 120C900 160 900 200 900 240C900 280 900 320 900 360C900 400 900 440 900 480C900 520 900 560 900 580L900 600Z" fill="#009344" stroke-linecap="round" stroke-linejoin="miter"></path></svg>