<svg id="visual" viewBox="0 0 900 600" width="900" height="600" xmlns="http://www.w3.org/2000/svg" xmlns:xlink="http://www.w3.org/1999/xlink" version="1.1"><path d="M880 600L876.7 580C873.3 560 866.7 520 842.8 480C819 440 778 400 779 360C780 320 823 280 844.2 240C865.3 200 864.7 160 844.2 120C823.7 80 783.3 40 763.2 20L743 0L900 0L900 20C900 40 900 80 900 120C900 160 900 200 900 240C900 280 900 320 900 360C900 400 900 440 900 480C900 520 900 560 900 580L900 600Z" fill="#009344" stroke-linecap="round" stroke-linejoin="miter"></path></svg>