                <svg width="260" height="600" viewBox="0 0 260 600" fill="none" xmlns="http://www.w3.org/2000/svg">
                    <path
                        d="M0 600L8.79999 585.7C17.7 571.3 35.3 542.7 60.3 514.2C85.3 485.7 117.7 457.3 138.2 428.8C158.7 400.3 167.3 371.7 150.3 343C133.3 314.3 90.7 285.7 93.2 257C95.7 228.3 143.3 199.7 154.8 171.2C166.3 142.7 141.7 114.3 118.8 85.8C96 57.3 75 28.7 64.5 14.3L54 0H319V14.3C319 28.7 319 57.3 319 85.8C319 114.3 319 142.7 319 171.2C319 199.7 319 228.3 319 257C319 285.7 319 314.3 319 343C319 371.7 319 400.3 319 428.8C319 457.3 319 485.7 319 514.2C319 542.7 319 571.3 319 585.7V600H0Z"
                        fill="#009344" />
                </svg>