<svg id="visual" viewBox="0 0 900 600" width="900" height="600" xmlns="http://www.w3.org/2000/svg"
    xmlns:xlink="http://www.w3.org/1999/xlink" version="1.1">
    <rect x="0" y="0" width="900" height="600" fill="#FFFFFF"></rect>
    <path
        d="M0 494L18.8 492.8C37.7 491.7 75.3 489.3 112.8 482C150.3 474.7 187.7 462.3 225.2 445.7C262.7 429 300.3 408 337.8 385.7C375.3 363.3 412.7 339.7 450.2 351.5C487.7 363.3 525.3 410.7 562.8 436C600.3 461.3 637.7 464.7 675.2 467.5C712.7 470.3 750.3 472.7 787.8 472.3C825.3 472 862.7 469 881.3 467.5L900 466L900 601L881.3 601C862.7 601 825.3 601 787.8 601C750.3 601 712.7 601 675.2 601C637.7 601 600.3 601 562.8 601C525.3 601 487.7 601 450.2 601C412.7 601 375.3 601 337.8 601C300.3 601 262.7 601 225.2 601C187.7 601 150.3 601 112.8 601C75.3 601 37.7 601 18.8 601L0 601Z"
        fill="#009344" stroke-linecap="round" stroke-linejoin="miter"></path>
</svg>